<svg width="18" height="13" viewBox="0 0 18 13" fill="none" xmlns="http://www.w3.org/2000/svg">
<path d="M17.9259 6.119C17.7884 5.86822 14.5319 0 8.99847 0C3.46503 0 0.208524 5.8685 0.0710033 6.119C-0.0236678 6.29947 -0.0236678 6.52173 0.0710033 6.7022C0.208578 6.9647 3.46503 12.8332 8.99847 12.8332C14.5319 12.8332 17.7884 6.9647 17.9259 6.7142C18.0247 6.5308 18.0247 6.30267 17.9259 6.1193V6.119ZM8.99847 11.6665C4.76248 11.6665 1.88191 7.5831 1.16163 6.4165C1.88178 5.2499 4.76239 1.1665 8.99847 1.1665C13.2345 1.1665 16.115 5.2499 16.8353 6.4165C16.1152 7.5831 13.2611 11.6665 8.99847 11.6665V11.6665Z" fill="#67CCEB"/>
<path d="M8.99859 2.33289C8.01553 2.33289 7.07286 2.76316 6.37772 3.52899C5.68259 4.29481 5.29199 5.33328 5.29199 6.41628C5.29199 7.49928 5.68256 8.53778 6.37772 9.30358C7.07288 10.0694 8.01553 10.4997 8.99859 10.4997C9.98166 10.4997 10.9243 10.0694 11.6195 9.30358C12.3146 8.53776 12.7052 7.49928 12.7052 6.41628C12.7052 5.33328 12.3146 4.29479 11.6195 3.52899C10.9243 2.76319 9.98166 2.33289 8.99859 2.33289V2.33289ZM8.99859 9.33288C8.29633 9.33288 7.62298 9.02566 7.12659 8.47858C6.63002 7.93168 6.35112 7.18993 6.35112 6.41628C6.35112 5.64263 6.63 4.90084 7.12659 4.35399C7.62303 3.80694 8.29633 3.49969 8.99859 3.49969C9.70085 3.49969 10.3742 3.80691 10.8706 4.35399C11.3672 4.90089 11.6461 5.64263 11.6461 6.41628C11.6461 7.18993 11.3672 7.93173 10.8706 8.47858C10.3742 9.02563 9.70085 9.33288 8.99859 9.33288Z" fill="#67CCEB"/>
</svg>
