<svg width="30" height="30" viewBox="0 0 30 30" fill="none" xmlns="http://www.w3.org/2000/svg">
<path d="M29.9997 0L20.6617 2.33516L24.1237 3.48847L23.1273 4.48494C20.7999 2.68467 17.9485 1.68732 15.0005 1.68584C12.0521 1.68584 9.20091 2.68489 6.87272 4.48538L5.87627 3.48891L9.33855 2.33538L0 0.000438872L2.33472 9.3392L3.48845 5.87596L4.4894 6.87737C2.68828 9.20397 1.68882 12.0528 1.68476 15.0004C1.68862 17.9477 2.68784 20.7975 4.48896 23.1235L3.48845 24.1245L2.33472 20.6612L0 30L9.33801 27.6648L5.87616 26.5111L6.87217 25.5151C9.20042 27.3158 12.0516 28.3131 15 28.3146C17.9474 28.3101 20.7963 27.3113 23.1229 25.5099L24.1241 26.5109L20.662 27.6646L30 29.9998L27.6655 20.661L26.5111 24.124L25.5149 23.1269C27.3156 20.7988 28.3129 17.9478 28.3144 15C28.3099 12.0528 27.3113 9.20298 25.5102 6.87693L26.5113 5.87552L27.6651 9.33854L29.9997 0ZM0.824303 0.825254L7.19337 2.41788L4.76522 3.22684L6.81342 5.27487L7.02278 5.10579C9.28207 3.2828 12.097 2.28781 14.9997 2.28589C17.9027 2.28589 20.7176 3.28258 22.9773 5.10579L23.1866 5.27487L25.2346 3.22684L22.8067 2.41788L29.1757 0.825254L27.5834 7.19501L26.7738 4.76599L24.7217 6.81873L24.8914 7.02873C26.7151 9.28632 27.7115 12.0996 27.7154 15.0015C27.7154 17.9046 26.7187 20.7195 24.8958 22.9786L24.7263 23.188L26.7738 25.2365L27.5834 22.8074L29.1758 29.1772L22.8067 27.5846L25.2347 26.7758L23.1822 24.7231L22.9724 24.8926C20.7151 26.7162 17.902 27.7129 15.0004 27.7172C12.0971 27.7172 9.28192 26.7205 7.02285 24.8973L6.81306 24.7276L4.7653 26.7758L7.19345 27.5846L0.82438 29.1772L2.41676 22.808L3.22592 25.2366L5.27839 23.1839L5.10889 22.9743C3.28529 20.7167 2.28862 17.9032 2.28478 15.001C2.28885 12.0988 3.28572 9.28572 5.10933 7.02825L5.2784 6.81845L3.22593 4.76527L2.41677 7.19391L0.824303 0.825254ZM15.0584 6.00093C15.0584 6.00093 12.2557 6.00093 10.6541 7.40112C9.05252 8.80091 8.85212 11.201 8.85212 11.201C8.85212 11.201 8.85212 12.2011 9.05248 13.2013C9.25263 14.2014 7.25071 15.2015 7.25071 15.8017C7.25071 16.4011 8.45184 16.4011 8.45184 17.0016C8.45184 17.6016 8.25169 17.6016 8.25169 17.8011C8.25169 18.001 8.6522 18.001 8.6522 18.2016C8.6522 18.4011 8.45184 18.8012 8.45184 18.8012C8.45184 18.8012 9.11058 19.2759 9.05249 19.8013C8.9942 20.3276 8.65219 20.6019 9.25263 21.2013C9.85328 21.8015 11.8552 21.0016 12.656 21.6014C13.4568 22.2016 13.8571 24.0015 13.8571 24.0015H20.8642C20.8642 24.0015 19.6631 21.4017 19.8632 20.0015C20.0634 18.6017 21.0644 17.0015 21.0644 17.0015C21.0644 17.0015 22.4661 15.2013 22.6662 14.0012C22.8663 12.8016 22.6662 11.8011 22.4662 11.0015C22.2657 10.2006 21.6652 8.40059 19.8633 7.20032C18.0615 6.0007 15.0584 6.0007 15.0584 6.0007L15.0584 6.00093Z" fill="#004AAD"/>
</svg>
