<svg width="32" height="31" viewBox="0 0 32 31" fill="none" xmlns="http://www.w3.org/2000/svg">
<path d="M31.8799 26.2047C31.7799 26.1079 31.6297 26.0593 31.5297 26.0593H0.550979C0.400754 26.0593 0.300759 26.1077 0.200764 26.2047C0.10077 26.3015 0.0505388 26.4469 0.100769 26.5923C0.400984 29.111 2.65299 30.9999 5.30559 30.9999H26.7756C29.428 30.9999 31.6302 29.111 31.9804 26.5437C32.0304 26.4469 31.9804 26.3015 31.8802 26.2048L31.8799 26.2047ZM17.6667 28.9655H14.4136C14.1634 28.9655 13.9132 28.7718 13.9132 28.4812C13.9132 28.239 14.1134 27.9969 14.4136 27.9969H17.6667C17.9169 27.9969 18.1671 28.1907 18.1671 28.4812C18.1671 28.7718 17.9169 28.9655 17.6667 28.9655Z" fill="#004AAD"/>
<path d="M2.10205 24.6063V11.0445H3.05292V24.1708H28.9272V7.79918C28.9272 7.07265 28.3265 6.49134 27.5759 6.49134L14.9641 6.49157V5.57129H27.6261C28.9274 5.57129 29.9783 6.58833 29.9783 7.84781V24.7035C29.9783 24.9457 29.778 25.1878 29.4778 25.1878L2.60256 25.1876C2.35234 25.0908 2.10212 24.897 2.10212 24.6065L2.10205 24.6063Z" fill="#004AAD"/>
<path d="M12.3115 0.000458939H1.70156C0.750684 0.000458939 0 0.726988 0 1.59886V8.47653C0 9.39681 0.750684 10.1233 1.70156 10.1233H7.55703L10.7601 12.5936C10.9104 12.6904 11.1103 12.739 11.2606 12.642C11.4108 12.5452 11.5608 12.3998 11.5608 12.2061V10.0749H12.3115C13.2623 10.0749 14.013 9.3484 14.013 8.42812L14.0133 1.5984C13.963 0.726529 13.2124 0 12.3115 0L12.3115 0.000458939ZM11.0604 7.75041H2.95313C2.70291 7.75041 2.45269 7.55663 2.45269 7.26607C2.45269 6.97551 2.65291 6.78173 2.95313 6.78173H11.0604C11.3106 6.78173 11.5609 6.97551 11.5609 7.26607C11.5609 7.55662 11.3106 7.75041 11.0604 7.75041ZM11.0604 5.5223H2.95313C2.70291 5.5223 2.45269 5.32852 2.45269 5.03796C2.45269 4.79579 2.65291 4.55362 2.95313 4.55362H11.0604C11.3106 4.55362 11.5609 4.7474 11.5609 5.03796C11.5609 5.32851 11.3106 5.5223 11.0604 5.5223ZM11.0604 3.29441H2.95313C2.70291 3.29441 2.45269 3.10064 2.45269 2.81008C2.45269 2.56791 2.65291 2.32574 2.95313 2.32574H11.0604C11.3106 2.32574 11.5609 2.51952 11.5609 2.81008C11.5609 3.10063 11.3106 3.29441 11.0604 3.29441Z" fill="#004AAD"/>
<path d="M11.0604 17.4861C11.1604 17.5829 11.2106 17.7767 11.1604 17.922L9.50887 22.7656C9.40887 23.0562 9.10842 23.0562 9.05843 23.0562C8.85821 23.0562 8.70821 22.9108 8.65798 22.7173L8.20754 20.2953L5.65515 19.811C5.45493 19.7626 5.30493 19.6172 5.30493 19.4234C5.30493 19.2297 5.40493 19.0359 5.60515 18.9875L10.6098 17.3891C10.7602 17.3407 10.9605 17.3891 11.0605 17.4861H11.0604Z" fill="#004AAD"/>
<path d="M27.0257 18.5512V21.6026C27.0257 21.8448 26.8254 22.087 26.5252 22.087L18.4675 22.0872C18.2173 22.0872 17.967 21.8934 17.967 21.6029V18.5515C17.967 17.389 18.9179 16.4688 20.119 16.4688H24.9234C26.0747 16.4685 27.0256 17.3888 27.0256 18.5512L27.0257 18.5512Z" fill="#004AAD"/>
<path d="M19.9185 12.9327C19.9185 11.5764 21.0696 10.4624 22.4709 10.4624C23.8722 10.4624 25.0232 11.5765 25.0232 12.9327C25.0232 14.2889 23.8721 15.4029 22.4709 15.4029C21.0693 15.4029 19.9185 14.2889 19.9185 12.9327Z" fill="#004AAD"/>
</svg>
