<svg width="25" height="23" viewBox="0 0 25 23" fill="none" xmlns="http://www.w3.org/2000/svg">
<path d="M6.08523 0C4.27048 0 2.77794 1.58748 2.77794 3.51997C2.77794 5.45262 4.27048 7.04016 6.08523 7.04016C7.89999 7.04016 9.39253 5.45267 9.39253 3.51997C9.39253 1.58754 7.89999 0 6.08523 0ZM6.08523 1.76915C7.00055 1.76915 7.72578 2.5452 7.72578 3.51997C7.72578 4.49496 7.00055 5.26153 6.08523 5.26153C5.16972 5.26153 4.44468 4.49491 4.44468 3.51997C4.44468 2.5452 5.16972 1.76915 6.08523 1.76915ZM18.9149 2.80132C17.1002 2.80132 15.6076 4.3888 15.6076 6.32129C15.6076 8.25394 17.1002 9.84148 18.9149 9.84148C20.7297 9.84148 22.2222 8.25399 22.2222 6.32129C22.2222 4.38886 20.7297 2.80132 18.9149 2.80132ZM18.9149 4.57968C19.8304 4.57968 20.5555 5.34646 20.5555 6.32124C20.5555 7.29622 19.8304 8.06301 18.9149 8.06301C17.9996 8.06301 17.2744 7.29622 17.2744 6.32124C17.2744 5.34646 17.9996 4.57968 18.9149 4.57968ZM6.08523 7.89703C2.73627 7.89703 0 10.7437 0 14.2648V19.3054C0 19.5399 0.0877715 19.7649 0.244138 19.9309C0.400307 20.0967 0.612283 20.1899 0.833366 20.1899H18.3158C18.5388 20.1934 18.7538 20.1016 18.9127 19.9352C19.0714 19.769 19.1609 19.5422 19.1609 19.3054C19.1609 19.0685 19.0714 18.8416 18.9127 18.6754C18.7538 18.509 18.5388 18.4174 18.3158 18.4207H1.66669V14.2648C1.66669 11.7095 3.61438 9.66661 6.08498 9.66661C8.55543 9.66661 10.5033 11.7095 10.5033 14.2648V16.4488C10.5002 16.6856 10.5866 16.9137 10.7431 17.0823C10.8997 17.251 11.1136 17.346 11.3366 17.346C11.5597 17.346 11.7734 17.251 11.9301 17.0823C12.0867 16.9137 12.1731 16.6855 12.17 16.4488V14.2648C12.17 10.744 9.43393 7.89704 6.08477 7.89704L6.08523 7.89703ZM18.9149 10.6983C15.7915 10.6983 13.1982 13.168 12.8649 16.3652C12.8407 16.5986 12.9048 16.8327 13.0432 17.016C13.1815 17.199 13.3828 17.3165 13.6027 17.342C13.8224 17.3677 14.0429 17.2996 14.2156 17.1527C14.388 17.0059 14.4986 16.7922 14.5227 16.5587C14.7629 14.2548 16.611 12.4674 18.915 12.4674C21.3857 12.4674 23.3333 14.5105 23.3333 17.0655V21.2308H13.6633C13.4403 21.2275 13.2252 21.319 13.0665 21.4854C12.9077 21.6516 12.8181 21.8785 12.8181 22.1154C12.8181 22.3522 12.9077 22.5791 13.0665 22.7453C13.2252 22.9117 13.4403 23.0034 13.6633 22.9999H24.1666C24.3877 22.9999 24.5997 22.9067 24.7559 22.7409C24.9122 22.575 25 22.3499 25 22.1154V17.0656C25 13.545 22.2639 10.6978 18.9148 10.6978L18.9149 10.6983Z" fill="#004AAD"/>
</svg>
