<svg width="55" height="56" viewBox="0 0 55 56" fill="none" xmlns="http://www.w3.org/2000/svg">
<path d="M1.10616 55.7555C1.44907 55.9389 1.79198 56 2.1349 56C2.82072 56 3.57513 55.6943 3.91804 55.083C8.71882 47.5023 17.7717 42.7949 27.5104 42.7949C37.2491 42.7949 46.3028 47.5023 51.1718 55.083C51.7205 55.9389 52.9549 56.2445 53.9837 55.7555C54.9439 55.2664 55.2868 54.166 54.7382 53.2489C50.8289 47.0742 44.4508 42.6115 37.0431 40.4717C41.981 38.0875 45.3416 33.4413 45.3416 28.1225V12.8382C45.3416 8.43649 41.6382 4.82963 36.8374 4.34055L36.5631 4.03488C34.5741 1.52829 31.2822 0 27.8532 0H20.4463C14.4797 0 9.67874 4.27942 9.67874 9.59819V28.1216C9.67874 31.8509 11.3247 35.3965 14.2737 38.0865C15.371 39.0646 16.6055 39.8594 17.9086 40.5318C10.5704 42.6715 4.19214 47.1344 0.213568 53.309C-0.26651 54.1038 0.0764028 55.2653 1.10514 55.7544L1.10616 55.7555ZM29.0189 32.3413C28.5388 32.4024 27.9901 32.4024 27.51 32.4024C26.9614 32.4024 26.4127 32.4024 25.9327 32.3413C24.8354 32.219 24.0124 31.302 24.1496 30.3238C24.2867 29.3456 25.3155 28.612 26.4129 28.7343C27.1673 28.7954 27.9217 28.7954 28.6075 28.7343C29.7048 28.612 30.7335 29.3456 30.8708 30.3848C31.008 31.3019 30.185 32.2189 29.0192 32.3411L29.0189 32.3413ZM13.7935 20.1756C13.7935 19.1974 13.9307 18.2193 14.205 17.2411C14.4108 16.4464 15.2338 15.8351 16.194 15.8351C22.6408 15.7128 28.9503 15.0404 33.6822 11.3111C33.9565 11.0666 34.2994 10.8221 34.5737 10.5775C35.4653 9.78278 36.974 9.84392 37.7285 10.8221C38.3458 11.5557 38.14 12.595 37.4542 13.2062C37.0427 13.5731 36.6312 13.8787 36.2197 14.1844C35.4653 14.7346 35.6025 15.7739 36.4255 16.2019C36.6998 16.3242 36.9741 16.4464 37.1799 16.5076C37.8657 16.7521 38.5515 16.8744 39.3745 16.9355C40.2661 17.0578 41.0205 17.6691 41.1576 18.525C41.2262 19.0752 41.2948 19.5643 41.2948 20.1145C41.2948 23.5381 39.7175 26.6558 37.1112 28.8567C36.6311 29.2846 35.8081 29.1624 35.4652 28.6121C33.9564 26.1056 31.0073 24.3327 27.5783 24.3327C24.1493 24.3327 21.2001 26.0445 19.6914 28.6121C19.3485 29.1624 18.5255 29.2846 18.0454 28.8567C15.3708 26.717 13.7933 23.5991 13.7933 20.1756H13.7935Z" fill="#004AAD"/>
</svg>
